<?xml version="1.0" standalone="no"?>
<!DOCTYPE svg PUBLIC "-//W3C//DTD SVG 20010904//EN"
 "http://www.w3.org/TR/2001/REC-SVG-20010904/DTD/svg10.dtd">
<svg version="1.0" xmlns="http://www.w3.org/2000/svg"
 width="700.000000pt" height="700.000000pt" viewBox="0 0 700.000000 700.000000"
 preserveAspectRatio="xMidYMid meet">
<metadata>
Created by potrace 1.14, written by Peter Selinger 2001-2017
</metadata>
<g transform="translate(0.000000,700.000000) scale(0.100000,-0.100000)"
fill="#000000" stroke="none">
<path d="M4554 5612 c-14 -9 -54 -78 -54 -93 0 -25 -79 -177 -111 -213 -31
-36 -131 -122 -249 -216 -138 -109 -150 -134 -69 -143 123 -15 233 -132 295
-313 9 -27 19 -62 21 -79 2 -16 8 -48 13 -70 9 -38 6 -289 -3 -330 -3 -11 -8
-40 -11 -65 -4 -25 -15 -83 -26 -130 -26 -110 -24 -101 -60 -227 -214 -730
-230 -796 -255 -1048 -13 -141 -17 -155 -39 -155 -58 0 -64 -77 -11 -140 19
-23 35 -45 36 -48 5 -42 4 -52 -7 -52 -18 0 -64 58 -87 110 -75 172 -205 639
-254 910 -2 14 -13 66 -23 115 -11 50 -22 104 -25 120 -3 17 -12 64 -20 105
-8 41 -26 136 -40 210 -24 124 -50 269 -59 330 -15 99 -29 174 -43 226 -23 90
-14 223 19 295 41 90 147 186 261 238 27 12 47 27 45 34 -2 7 -65 31 -139 55
-165 53 -354 125 -434 165 -60 29 -156 99 -228 166 -100 92 -220 167 -313 194
-63 19 -206 15 -289 -7 -239 -65 -459 -255 -503 -436 -23 -94 -2 -226 50 -319
37 -68 79 -106 145 -138 65 -30 163 -43 163 -21 0 24 -41 55 -120 91 -80 37
-119 67 -121 95 -1 9 -3 78 -4 152 -2 140 4 168 42 202 57 51 213 67 298 29
126 -55 254 -248 333 -501 11 -35 69 -257 77 -295 4 -19 20 -105 30 -155 3
-14 7 -36 10 -50 8 -39 15 -72 20 -105 3 -16 7 -41 10 -55 2 -14 7 -50 10 -80
4 -30 13 -91 21 -135 20 -115 19 -133 -9 -140 -38 -10 -144 3 -179 21 -70 36
-113 121 -120 239 -3 36 -6 40 -33 43 -62 6 -64 -1 -69 -233 -3 -115 -8 -318
-12 -450 -7 -267 -6 -274 55 -260 38 8 51 25 91 120 70 165 114 204 251 219
43 5 67 -11 93 -62 86 -169 193 -616 210 -876 4 -59 -13 -137 -40 -184 -42
-72 -117 -123 -282 -193 -36 -16 -54 -30 -58 -45 -6 -24 3 -47 15 -40 10 6
125 -18 187 -39 103 -35 160 -75 282 -198 304 -309 356 -351 441 -363 l39 -6
47 74 c143 221 269 342 424 407 54 23 235 76 341 101 68 16 80 25 80 61 0 37
-36 69 -170 154 -57 37 -114 78 -127 93 -66 76 -92 192 -87 392 3 136 11 194
50 380 36 167 71 317 111 465 19 72 36 137 38 145 8 31 75 271 118 420 127
434 148 492 230 617 77 118 149 182 271 243 57 28 72 40 74 60 4 33 -12 47
-182 160 -149 99 -206 145 -206 167 0 7 -4 13 -10 13 -5 0 -10 6 -10 13 0 19
-99 229 -117 249 -18 20 -23 21 -39 10z"/>
</g>
</svg>
